<?xml version="1.0" encoding="utf-8"?>
<!-- Generator: Adobe Illustrator 19.1.0, SVG Export Plug-In . SVG Version: 6.00 Build 0)  -->
<!DOCTYPE svg PUBLIC "-//W3C//DTD SVG 1.1//EN" "http://www.w3.org/Graphics/SVG/1.1/DTD/svg11.dtd">
<svg version="1.1" id="Layer_1" xmlns="http://www.w3.org/2000/svg" xmlns:xlink="http://www.w3.org/1999/xlink" x="0px" y="0px"
	 viewBox="0 0 240.1 81.4" style="enable-background:new 0 0 240.1 81.4;" xml:space="preserve">
<style type="text/css">
	.st0{fill:#010201;}
</style>
<path id="XMLID_2_" class="st0" d="M0.2,0h6.3c0,0,5.1,8.8,6.4,11.5H13V0h6v21h-6.3c0,0-4.8-8.3-6.4-11.5H6.1V21h-6V0z M35.6,17.9
	c-1.2,2.2-3.9,3.5-7.1,3.5c-4.6,0-7.9-2.6-7.9-7.6c0-5.1,3.4-7.7,7.8-7.7c5.1,0,7.6,3.5,7.6,8.1v1h-9.6c0,0.7,0.2,2,2,2
	c1,0,1.6-0.5,2-1.2L35.6,17.9z M26.5,12.3h3.9c-0.1-1.4-0.6-2.2-1.9-2.2C27.1,10,26.6,11.1,26.5,12.3z M50.7,6.6
	c0,0,1.3,6.6,1.6,8.9h0.1c0.4-2.3,1.7-8.9,1.7-8.9h5.6L55.9,21h-6.5l-1.6-8.8L46.2,21h-6.6L35.8,6.6h5.9c0,0,1.3,6.6,1.7,8.9h0.1
	c0.3-2.2,1.6-8.9,1.6-8.9H50.7z M67.4,11.7c2.9,0.6,5.9,1.3,5.9,4.7c0,3.4-3,5-7.3,5c-3.1,0-6.3-0.9-7-4l5.5-0.8
	c0.1,0.8,0.9,1.1,1.6,1.1c0.8,0,1.4-0.3,1.4-0.9c0-0.6-0.6-0.7-2.8-1.1c-2.5-0.5-5.1-1.4-5.1-4.6c0-3.6,3.5-4.9,6.9-4.9
	c3.5,0,6.1,1.4,6.7,3.7l-5.3,1c-0.1-0.7-0.6-1-1.4-1c-0.6,0-1.2,0.3-1.2,0.8C65.3,11.3,66.1,11.5,67.4,11.7z M73.4,21l3.7-21h15.6
	l-0.9,5h-9.4l-0.5,2.9h8.5l-0.9,4.9h-8.5L79.6,21H73.4z M94.3,0h5.9l-3.7,21h-5.9L94.3,0z M106.9,21l0.2-1.6c-0.9,1.3-2.4,2-4.3,2
	c-2.9,0-4.2-1.8-4.2-4c0-3.4,3-4.6,6.2-5.1l3.5-0.5l0.1-0.6c0.1-0.7-0.1-1.2-1.1-1.2c-0.9,0-1.4,0.5-1.5,1.2h-5.6
	c0.7-2.9,3.5-4.9,7.4-4.9c4.2,0,7,1.6,6.3,5.6l-1.6,9.2H106.9z M107.6,15.6l0.2-0.8l-2,0.3c-1,0.2-1.6,0.7-1.6,1.4
	c0,0.8,0.5,1,1.2,1C106.5,17.4,107.4,16.8,107.6,15.6z M123.6,11.9c2.3,0.6,4.4,1.6,4.4,4.3c0,3.3-3,5.2-7.5,5.2
	c-3,0-6.2-0.8-6.8-4.3l5.5-0.5c0,0.7,0.6,1.1,1.6,1.1c0.8,0,1.5-0.2,1.5-0.9c0-0.5-0.6-0.8-2-1.1c-2.4-0.5-4.8-1.6-4.8-4.6
	c0-3.6,3.4-5,7-5c2.6,0,6.2,0.8,6.7,4.1l-5.4,0.5c0-0.6-0.4-1-1.3-1c-0.7,0-1.3,0.3-1.3,0.8C121.1,11.5,122.4,11.6,123.6,11.9z
	 M132.1,0h5.9l-1.5,8.4c0.7-1,2.2-2.2,4.6-2.2c3.2,0,4.9,1.9,4.3,5.5l-1.6,9.3h-5.9l1.3-7.7c0.3-1.5-0.1-2.4-1.3-2.4
	c-0.8,0-1.8,0.5-2.2,2.8l-1.3,7.3h-5.9L132.1,0z M146.2,21l1-6h5.8l-1,6H146.2z M152.9,13.1h-4.8L149.5,0h6.5L152.9,13.1z M9.6,29.6
	c4.2,0,6.8,2.1,8.2,5.5l-2.8,1c-0.9-2.3-2.5-4-5.4-4c-4,0-6.4,3.3-6.4,8.4c0,4.9,2.3,8.4,6.4,8.4c2.8,0,4.5-1.6,5.4-4l2.9,1.1
	c-1.4,3.4-4,5.5-8.2,5.5C3.6,51.4,0,47,0,40.5S3.7,29.6,9.6,29.6z M33,43.9c0,4.3-2.6,7.4-7,7.4c-4.3,0-6.9-3.1-6.9-7.4
	c0-4.4,2.6-7.5,6.9-7.5C30.4,36.4,33,39.5,33,43.9z M30,43.9c0-2.9-1.3-5.2-4-5.2c-2.6,0-3.9,2.3-3.9,5.2c0,2.8,1.3,5.2,3.9,5.2
	C28.8,49.1,30,46.8,30,43.9z M35.7,36.8h2.8V39c0.9-1.5,2.3-2.5,4.5-2.5c2.8,0,5,1.6,5,4.7V51H45v-9.2c0-2.1-1.4-2.9-2.9-2.9
	c-1.9,0-3.6,1.6-3.6,4.5V51h-2.9V36.8z M51.5,36.8h2.8V39c0.9-1.5,2.3-2.5,4.5-2.5c2.8,0,5,1.6,5,4.7V51h-2.9v-9.2
	c0-2.1-1.4-2.9-2.9-2.9c-1.9,0-3.6,1.6-3.6,4.5V51h-2.9V36.8z M79.1,47.8c-1.1,2.2-3,3.5-5.9,3.5c-4.3,0-6.9-3.1-6.9-7.5
	c0-4.4,2.7-7.4,6.8-7.4c4.4,0,6.5,3.4,6.5,7.2v0.9H69.2c0.1,2.5,1.2,4.6,3.9,4.6c1.9,0,2.7-0.9,3.4-2.3L79.1,47.8z M69.3,42.4h7.3
	c-0.1-2.4-1.6-3.8-3.6-3.8C70.9,38.6,69.5,40.3,69.3,42.4z M88,36.4c3.2,0,4.9,1.6,5.8,3.8l-2.7,1c-0.4-1.6-1.5-2.5-3.2-2.5
	c-2.5,0-3.8,2.4-3.8,5.1c0,2.7,1.2,5.1,3.8,5.1c1.9,0,2.6-1.1,3.2-2.4l2.7,1c-1.1,2.1-2.8,3.7-5.8,3.7c-4.3,0-6.8-3.1-6.8-7.4
	S83.7,36.4,88,36.4z M103,51.1c-0.6,0.2-1.4,0.3-2.2,0.3c-2.6,0-4.1-1.3-4.1-3.8V39h-2.4v-2.2h2.4v-4l2.9-1.3v5.4h3.2V39h-3.2v8.2
	c0,1.3,0.5,1.8,1.7,1.8c0.6,0,1.1-0.1,1.6-0.2V51.1z M105.4,30h2.9v3.3h-2.9V30z M105.4,51V36.8h2.9V51H105.4z M112,36.8h2.8V39
	c0.9-1.5,2.3-2.5,4.5-2.5c2.8,0,5,1.6,5,4.7V51h-2.9v-9.2c0-2.1-1.4-2.9-2.9-2.9c-1.9,0-3.6,1.6-3.6,4.5V51H112V36.8z M140.2,38.2
	c-0.2-0.1-0.5-0.2-0.8-0.2c-0.6,0-1,0.2-1.2,0.5c0.7,0.7,1.1,1.9,1.1,3.1c0,3.2-2.8,5-5.9,5c-1.2,0-1.9-0.3-2.2-0.3
	c-0.5,0-1.3,0.3-1.3,1.2c0,1,1.3,1.1,4.5,1.3c3.7,0.3,6.1,0.9,6.1,3.8c0,3.4-3.2,4.7-7.3,4.7c-3.8,0-6.6-1.2-6.6-3.9
	c0-1.5,1-2.8,2-3.2c-1-0.5-1.5-1.4-1.5-2.3c0-1.1,0.7-2.1,2-2.6c-1-0.8-1.7-2-1.7-3.7c0-3.4,2.9-5.2,5.8-5.2c1.3,0,2.5,0.4,3.4,0.8
	c0.7-0.6,1.4-1.1,2.7-1.1c0.3,0,0.6,0,0.9,0.1V38.2z M130.4,50.9c-0.8,0.4-1.3,1.3-1.3,2.2c0,1.6,1.7,2.3,4.1,2.3
	c2.6,0,4.5-0.8,4.5-2.5c0-1.3-1.1-1.6-4.2-1.7C132.1,51.1,131.2,51.1,130.4,50.9z M133.3,44.7c1.7,0,3.1-1.1,3.1-3.1
	c0-2-1.4-3.2-3.1-3.2c-1.7,0-3.1,1.1-3.1,3.2C130.2,43.6,131.6,44.7,133.3,44.7z M157.5,29.6c4.2,0,6.8,2.1,8.2,5.5l-2.8,1
	c-0.9-2.3-2.5-4-5.4-4c-4,0-6.4,3.3-6.4,8.4c0,4.9,2.3,8.4,6.4,8.4c2.8,0,4.5-1.6,5.4-4l2.8,1.1c-1.4,3.4-4,5.5-8.2,5.5
	c-6,0-9.6-4.3-9.6-10.9S151.6,29.6,157.5,29.6z M180.1,51h-2.8v-2.1c-0.9,1.5-2.2,2.5-4.4,2.5c-2.7,0-5-1.6-5-4.7v-9.8h2.9V46
	c0,2.1,1.4,2.9,2.8,2.9c1.8,0,3.5-1.6,3.5-4.6v-7.6h2.9V51z M191.7,39.2c-0.3-0.1-0.7-0.2-1.1-0.2c-1.9,0-3.8,1.5-3.8,4.8V51h-2.9
	V36.8h2.8v2.3c0.7-1.6,2.2-2.6,4.1-2.6c0.5,0,0.8,0.1,1,0.1V39.2z M201.4,39.2c-0.3-0.1-0.7-0.2-1.1-0.2c-1.9,0-3.8,1.5-3.8,4.8V51
	h-2.9V36.8h2.8v2.3c0.7-1.6,2.2-2.6,4.1-2.6c0.5,0,0.8,0.1,1,0.1V39.2z M214.7,47.8c-1.1,2.2-3,3.5-5.9,3.5c-4.3,0-6.9-3.1-6.9-7.5
	c0-4.4,2.7-7.4,6.8-7.4c4.4,0,6.5,3.4,6.5,7.2v0.9h-10.3c0.1,2.5,1.2,4.6,3.9,4.6c1.9,0,2.7-0.9,3.4-2.3L214.7,47.8z M205,42.4h7.3
	c-0.1-2.4-1.6-3.8-3.6-3.8C206.5,38.6,205.2,40.3,205,42.4z M217.6,36.8h2.8V39c0.9-1.5,2.3-2.5,4.5-2.5c2.8,0,5,1.6,5,4.7V51H227
	v-9.2c0-2.1-1.4-2.9-2.8-2.9c-1.9,0-3.6,1.6-3.6,4.5V51h-2.9V36.8z M240.1,51.1c-0.6,0.2-1.4,0.3-2.2,0.3c-2.6,0-4.1-1.3-4.1-3.8V39
	h-2.4v-2.2h2.4v-4l2.9-1.3v5.4h3.2V39h-3.2v8.2c0,1.3,0.5,1.8,1.7,1.8c0.6,0,1.1-0.1,1.6-0.2V51.1z M1.1,81V60h12.7v2.5H4.1v6.5h9.1
	v2.5H4.1v7.1H14V81H1.1z M14.2,66.8h3.1c0,0,3.2,9.2,3.9,11.4h0.1C21.8,76,25,66.8,25,66.8h2.9L22.6,81h-3.1L14.2,66.8z M41.4,77.8
	c-1.1,2.2-3,3.5-5.9,3.5c-4.3,0-6.9-3.1-6.9-7.5c0-4.4,2.7-7.4,6.8-7.4c4.4,0,6.5,3.4,6.5,7.2v0.9H31.5c0.1,2.5,1.2,4.6,3.9,4.6
	c1.9,0,2.7-0.9,3.4-2.3L41.4,77.8z M31.6,72.4h7.3c-0.1-2.4-1.6-3.8-3.6-3.8C33.1,68.6,31.8,70.3,31.6,72.4z M44.2,66.8H47V69
	c0.9-1.5,2.3-2.5,4.5-2.5c2.8,0,5,1.6,5,4.7V81h-2.9v-9.2c0-2.1-1.4-2.9-2.9-2.9c-1.9,0-3.6,1.6-3.6,4.5V81h-2.9V66.8z M66.7,81.1
	c-0.6,0.2-1.4,0.3-2.2,0.3c-2.6,0-4.1-1.3-4.1-3.8V69H58v-2.2h2.4v-4l2.9-1.3v5.4h3.2V69h-3.2v8.2c0,1.3,0.5,1.8,1.7,1.8
	c0.6,0,1.1-0.1,1.6-0.2V81.1z M74.2,72.6c3,0.4,5.5,1.4,5.5,4.3c0,2.8-2.3,4.5-5.9,4.5c-3.5,0-5.7-1.5-6-4.3l2.8-0.4
	c0.2,1.8,1.2,2.6,3.2,2.6c1.8,0,3-0.7,3-2.1c0-1.2-0.9-1.7-3.5-2.1c-3.4-0.5-5.2-1.7-5.2-4.2c0-2.9,2.6-4.3,5.6-4.3
	c3.1,0,5.4,1.5,5.8,3.9L76.6,71c-0.2-1.5-1.2-2.4-2.9-2.4c-1.5,0-2.6,0.6-2.6,2C71.1,71.8,72.2,72.3,74.2,72.6z M95.2,81.1
	c-0.6,0.2-1.4,0.3-2.2,0.3c-2.6,0-4.1-1.3-4.1-3.8V69h-2.4v-2.2h2.4v-4l2.9-1.3v5.4h3.2V69h-3.2v8.2c0,1.3,0.5,1.8,1.7,1.8
	c0.6,0,1.1-0.1,1.6-0.2V81.1z M110.2,73.9c0,4.3-2.6,7.4-7,7.4c-4.3,0-6.9-3.1-6.9-7.4c0-4.4,2.6-7.5,6.9-7.5
	C107.6,66.4,110.2,69.5,110.2,73.9z M107.2,73.9c0-2.9-1.3-5.2-4-5.2c-2.6,0-3.9,2.3-3.9,5.2c0,2.8,1.3,5.2,3.9,5.2
	C105.9,79.1,107.2,76.8,107.2,73.9z M135.3,81h-3.1l-2-5.5H122l-2,5.5h-3l7.6-21h2.9L135.3,81z M126,63.7c-0.5,1.6-3.2,9.4-3.2,9.4
	h6.5C129.3,73.1,126.6,65.4,126,63.7L126,63.7z M145.1,69.2c-0.3-0.1-0.7-0.2-1.1-0.2c-1.9,0-3.8,1.5-3.8,4.8V81h-2.9V66.8h2.8v2.3
	c0.7-1.6,2.2-2.6,4.1-2.6c0.5,0,0.8,0.1,1,0.1V69.2z M154.5,81.1c-0.6,0.2-1.4,0.3-2.2,0.3c-2.6,0-4.1-1.3-4.1-3.8V69h-2.4v-2.2h2.4
	v-4l2.9-1.3v5.4h3.2V69h-3.2v8.2c0,1.3,0.5,1.8,1.7,1.8c0.6,0,1.1-0.1,1.6-0.2V81.1z"/>
</svg>
