<?xml version="1.0" encoding="UTF-8" standalone="no"?>
<!-- Created with Inkscape (http://www.inkscape.org/) -->

<svg
   xmlns:dc="http://purl.org/dc/elements/1.1/"
   xmlns:cc="http://creativecommons.org/ns#"
   xmlns:rdf="http://www.w3.org/1999/02/22-rdf-syntax-ns#"
   xmlns:svg="http://www.w3.org/2000/svg"
   xmlns="http://www.w3.org/2000/svg"
   version="1.1"
   width="585.59998"
   height="197.5125"
   id="svg3004"
   xml:space="preserve"><metadata
     id="metadata3010"><rdf:RDF><cc:Work
         rdf:about=""><dc:format>image/svg+xml</dc:format><dc:type
           rdf:resource="http://purl.org/dc/dcmitype/StillImage" /><dc:title></dc:title></cc:Work></rdf:RDF></metadata><defs
     id="defs3008" /><g
     transform="matrix(1.25,0,0,-1.25,0,197.5125)"
     id="g3012"><g
       transform="scale(0.1,0.1)"
       id="g3014"><path
         d="m 86.1953,94.7891 4510,0 0,1322.93 -4510,0 0,-1322.93 z"
         id="path3016"
         style="fill:#1e5cb3;fill-opacity:1;fill-rule:nonzero;stroke:none" /><path
         d="M 159.957,1409.94 12.4375,1262.42 M 159.957,1324.74 12.4375,1177.22 M 159.957,1239.53 12.4375,1092.01 M 159.957,1154.33 12.4375,1006.81 M 159.957,1069.12 12.4375,921.602 M 159.957,983.91 12.4375,836.391 M 159.957,898.711 12.4375,751.191 M 159.957,813.5 12.4375,665.98 M 159.957,728.301 12.4375,580.781 M 159.957,643.09 12.4375,495.57 M 159.957,557.891 12.4375,410.359 M 159.957,472.68 12.4375,325.16 M 159.957,387.469 12.4375,239.949 M 159.957,302.27 12.4375,154.75 M 122.047,173.09 10.9883,66.8594 M 68.25,113.789 166.285,10.9688 M 134.336,168.551 281.855,21.0313 M 219.535,168.551 367.066,21.0313 M 304.746,168.551 452.266,21.0313 M 389.957,168.551 537.477,21.0313 M 475.156,168.551 622.676,21.0313 M 560.367,168.551 707.887,21.0313 M 645.566,168.551 793.086,21.0313 M 730.777,168.551 878.297,21.0313 M 815.977,168.551 963.508,21.0313 M 901.188,168.551 1048.71,21.0313 M 986.395,168.551 1133.92,21.0313 M 1071.6,168.551 1219.12,21.0313 M 1156.81,168.551 1304.33,21.0313 M 1242.01,168.551 1389.54,21.0313 M 1327.22,168.551 1474.74,21.0313 M 1412.43,168.551 1559.95,21.0313 M 1497.63,168.551 1645.15,21.0313 M 1582.84,168.551 1730.36,21.0313 M 1668.04,168.551 1815.56,21.0313 M 1753.25,168.551 1900.77,21.0313 M 1838.46,168.551 1985.98,21.0313 M 1923.66,168.551 2071.18,21.0313 M 2008.87,168.551 2156.39,21.0313 M 2094.07,168.551 2241.59,21.0313 M 2179.28,168.551 2326.8,21.0313 M 2264.48,168.551 2412.01,21.0313 M 2349.69,168.551 2497.21,21.0313 M 2434.9,168.551 2582.42,21.0313 M 2520.1,168.551 2667.62,21.0313 M 2605.31,168.551 2752.83,21.0313 M 2690.51,168.551 2838.03,21.0313 M 2775.72,168.551 2923.24,21.0313 M 2860.92,168.551 3008.45,21.0313 M 2946.13,168.551 3093.65,21.0313 M 3031.34,168.551 3178.86,21.0313 M 3116.54,168.551 3264.06,21.0313 M 3201.75,168.551 3349.27,21.0313 M 3286.95,168.551 3434.48,21.0313 M 3372.16,168.551 3519.68,21.0313 M 3457.37,168.551 3604.89,21.0313 M 3542.57,168.551 3690.09,21.0313 M 3627.78,168.551 3775.3,21.0313 M 3712.98,168.551 3860.5,21.0313 M 3798.19,168.551 3945.71,21.0313 M 3883.4,168.551 4030.92,21.0313 M 3968.6,168.551 4116.12,21.0313 M 4053.81,168.551 4201.33,21.0313 M 4139.01,168.551 4286.53,21.0313 M 4224.22,168.551 4371.74,21.0313 M 4309.42,168.551 4456.95,21.0313 M 4394.63,168.551 4542.15,21.0313 m -62.31,147.5197 148.2,-147.5197 m -42.97,86.5707 88.55,87.66 m -151.18,-46.422 147.52,147.519 m -147.52,-62.32 147.52,147.52 m -147.52,-62.309 147.52,147.52 m -147.52,-62.309 147.52,147.519 m -147.52,-62.32 147.52,147.52 m -147.52,-62.309 147.52,147.52 m -147.52,-62.321 147.52,147.52 m -147.52,-62.309 147.52,147.52 m -147.52,-62.321 147.52,147.532 m -147.52,-62.321 147.52,147.519 m -147.52,-62.31 147.52,147.52 m -147.52,-62.32 147.52,147.52 m -147.52,-62.31 147.52,147.52 m -147.52,-62.32 147.52,147.52"
         id="path3018"
         style="fill:none;stroke:#1e5cb3;stroke-width:31.79000092;stroke-linecap:butt;stroke-linejoin:miter;stroke-miterlimit:4;stroke-opacity:1;stroke-dasharray:none" /><path
         d="M 733.055,547.488 591.656,857.934 c -6.32,15.011 -13.429,37.129 -13.429,37.129 l -1.582,0 c 0,0 0.793,-23.7 0.793,-41.075 l 0,-306.5 -91.633,0 0,552.962 97.949,0 139.031,-302.555 c 6.32,-13.426 13.43,-37.129 13.43,-37.129 l 1.582,0 c 0,3.957 -0.789,26.867 -0.789,40.293 l 0,299.391 91.633,0 0,-552.962 -95.586,0"
         id="path3020"
         style="fill:#ffffff;fill-opacity:1;fill-rule:nonzero;stroke:none" /><path
         d="m 1114.62,812.113 c -1.57,57.668 -17.37,108.227 -60.82,108.227 -50.56,0 -69.519,-51.352 -75.046,-108.227 l 135.866,0 z M 977.965,738.656 c 3.949,-60.039 22.905,-109.011 84.525,-109.011 35.55,0 59.24,24.484 76.62,60.82 L 1211,628.852 c -37.92,-56.872 -83.74,-89.262 -161.94,-89.262 -112.962,0 -173.001,86.098 -173.001,229.078 0,142.195 63.988,233.832 173.001,233.832 139.82,0 163.52,-120.074 163.52,-237.777 l 0,-26.067 -234.615,0"
         id="path3022"
         style="fill:#ffffff;fill-opacity:1;fill-rule:nonzero;stroke:none" /><path
         d="m 1588.61,548.281 -60.03,241.715 c -5.53,22.117 -10.28,53.719 -10.28,53.719 l -1.57,0 c 0,0 -4.74,-31.602 -10.27,-53.719 l -59.25,-241.715 -111.38,0 -118.49,446.313 110.59,0 54.51,-265.418 c 3.95,-19.746 8.69,-54.512 8.69,-54.512 l 1.57,0 c 0,0 5.54,34.766 10.27,53.719 l 66.36,266.211 95.58,0 67.94,-266.211 c 4.74,-19.746 11.06,-53.719 11.06,-53.719 l 1.58,0 c 0,0 3.95,33.184 7.9,53.719 l 52.92,266.211 110.6,0 -116.92,-446.313 -111.38,0"
         id="path3024"
         style="fill:#ffffff;fill-opacity:1;fill-rule:nonzero;stroke:none" /><path
         d="m 2069.72,867.418 c -22.91,38.699 -53.72,50.555 -86.11,50.555 -22.9,0 -45.81,-15.008 -45.81,-38.711 0,-22.91 25.28,-37.129 63.2,-51.344 61.61,-22.914 143.76,-62.406 143.76,-145.355 0,-87.684 -53.71,-142.973 -153.25,-142.973 -80.57,0 -134.29,38.711 -169.84,86.89 l 71.89,71.094 c 22.12,-33.965 59.25,-66.359 102.69,-66.359 32.39,0 50.56,18.176 50.56,41.875 0,29.23 -34.76,47.394 -75.83,63.195 -61.62,23.699 -133.51,56.875 -133.51,138.242 0,57.664 45.82,127.973 149.31,127.973 64.77,0 114.54,-26.07 150.88,-72.68 l -67.94,-62.402"
         id="path3026"
         style="fill:#ffffff;fill-opacity:1;fill-rule:nonzero;stroke:none" /><path
         d="m 2167.72,547.488 116.91,552.962 299.39,0 -26.07,-126.391 -165.1,0 -27.65,-127.969 137.45,0 -27.65,-125.606 -137.44,0 -35.55,-172.996 -134.29,0"
         id="path3028"
         style="fill:#ffffff;fill-opacity:1;fill-rule:nonzero;stroke:none" /><path
         d="m 2678.83,535.641 c -82.94,0.789 -142.98,36.339 -142.98,125.593 0,16.594 1.59,34.758 6.32,55.305 l 86.9,407.601 130.34,0 -86.9,-413.136 c -0.79,-3.949 -1.57,-7.902 -1.57,-11.848 0,-19.746 15,-27.648 37.91,-27.648 l -30.02,-135.867"
         id="path3030"
         style="fill:#ffffff;fill-opacity:1;fill-rule:nonzero;stroke:none" /><path
         d="m 3005.88,836.605 c 1.59,9.485 3.17,17.383 3.17,25.274 0,28.449 -13.44,45.031 -33.98,45.031 -60.82,0 -97.16,-142.187 -97.16,-210.129 0,-37.129 11.06,-60.816 37.13,-60.816 32.39,0 56.09,37.125 67.14,89.254 l 23.7,111.386 z m 110.6,-300.964 c -48.99,0 -112.18,17.371 -131.92,71.093 l -1.59,0 c -21.33,-37.925 -55.29,-70.304 -110.59,-70.304 -75.04,0 -121.65,59.242 -121.65,164.308 0,133.496 75.84,320.712 235.41,320.712 97.16,0 153.24,-70.302 153.24,-152.462 0,-13.425 -0.78,-26.855 -3.95,-40.281 l -25.27,-117.703 c -0.79,-3.949 -1.58,-7.902 -1.58,-11.848 0,-19.746 15.01,-27.648 37.91,-27.648 l -30.01,-135.867"
         id="path3032"
         style="fill:#ffffff;fill-opacity:1;fill-rule:nonzero;stroke:none" /><path
         d="m 3458.54,872.152 c -22.91,51.352 -112.18,60.832 -112.18,15.012 0,-54.504 169.85,-51.348 169.85,-186.426 0,-94.004 -75.84,-164.308 -182.49,-164.308 -90.84,0 -154.04,50.558 -176.95,94.785 l 93.22,78.996 c 19.75,-31.594 60.03,-57.664 98.74,-57.664 25.28,0 40.29,11.062 40.29,30.016 0,63.984 -169.05,50.558 -169.05,186.425 0,85.325 67.14,152.462 174.59,152.462 60.82,0 132.7,-21.32 162.72,-73.458 l -98.74,-75.84"
         id="path3034"
         style="fill:#ffffff;fill-opacity:1;fill-rule:nonzero;stroke:none" /><path
         d="m 3910.39,535.641 c -97.94,0.789 -164.3,50.554 -136.66,180.898 l 30.82,144.559 c 7.9,36.34 -3.96,58.449 -33.19,58.449 -34.75,0 -56.08,-31.59 -65.55,-75.832 l -62.42,-296.227 -131.13,0 122.44,576.652 131.13,0 -15.8,-73.46 c -3.15,-15.01 -17.37,-68.719 -17.37,-68.719 l 1.58,0 c 28.44,23.699 62.4,39.489 101.12,39.489 68.72,0 123.23,-50.555 96.36,-178.524 l -27.64,-131.922 c -6.32,-28.441 9.48,-39.496 36.33,-39.496 l -30.02,-135.867"
         id="path3036"
         style="fill:#ffffff;fill-opacity:1;fill-rule:nonzero;stroke:none" /><path
         d="m 4002.84,733.121 78.2,367.329 131.13,0 -78.2,-367.329 -131.13,0 z M 3966.5,615.426 c 0,45.019 36.34,78.203 78.99,78.203 42.67,0 77.42,-33.184 77.42,-78.203 0,-45.028 -34.75,-78.996 -77.42,-78.996 -42.65,0 -78.99,33.968 -78.99,78.996"
         id="path3038"
         style="fill:#ffffff;fill-opacity:1;fill-rule:nonzero;stroke:none" /><path
         d="m 1133.89,281.238 c -6.3,-14.758 -18.01,-24.84 -37.46,-24.84 -34.75,0 -44.29,32.043 -44.29,64.813 0,32.769 9.54,64.828 44.29,64.828 20.53,0 32.24,-11.348 38.36,-27.187 l -20.35,-12.614 c -3.06,10.442 -8.46,17.293 -18.01,17.293 -16.02,0 -20.88,-19.633 -20.88,-42.32 0,-22.68 4.86,-42.313 20.88,-42.313 9.01,0 14.41,6.313 17.47,15.852 l 19.99,-13.512"
         id="path3040"
         style="fill:#ffffff;fill-opacity:1;fill-rule:nonzero;stroke:none" /><path
         d="m 1202.28,309.328 c 0,15.66 -2.88,31.692 -16.57,31.692 -13.32,0 -16.38,-16.032 -16.38,-31.692 0,-14.769 3.06,-31.867 16.38,-31.867 13.69,0 16.57,15.48 16.57,31.867 z m -56.54,0 c 0,32.051 12.42,52.57 39.97,52.57 27.73,0 40.15,-20.519 40.15,-52.57 0,-32.418 -12.42,-52.93 -40.15,-52.93 -27.55,0 -39.97,20.512 -39.97,52.93"
         id="path3042"
         style="fill:#ffffff;fill-opacity:1;fill-rule:nonzero;stroke:none" /><path
         d="m 1299.84,258.191 0,63.918 c 0,10.09 -3.79,19.27 -14.59,19.27 -10.08,0 -15.3,-8.109 -15.3,-17.82 l 0,-65.368 -23.41,0 0,87.329 c 0,3.601 -0.18,10.089 -1.98,14.589 l 20.53,0 c 0,0 1.8,-4.871 2.7,-11.16 l 0.36,0 c 5.76,8.629 14.04,12.949 24.67,12.949 22.32,0 30.42,-18.898 30.42,-39.597 l 0,-64.11 -23.4,0"
         id="path3044"
         style="fill:#ffffff;fill-opacity:1;fill-rule:nonzero;stroke:none" /><path
         d="m 1402.62,258.191 0,63.918 c 0,10.09 -3.78,19.27 -14.58,19.27 -10.09,0 -15.31,-8.109 -15.31,-17.82 l 0,-65.368 -23.4,0 0,87.329 c 0,3.601 -0.19,10.089 -1.99,14.589 l 20.53,0 c 0,0 1.8,-4.871 2.7,-11.16 l 0.36,0 c 5.76,8.629 14.04,12.949 24.67,12.949 22.32,0 30.42,-18.898 30.42,-39.597 l 0,-64.11 -23.4,0"
         id="path3046"
         style="fill:#ffffff;fill-opacity:1;fill-rule:nonzero;stroke:none" /><path
         d="m 1500.18,318.52 c -0.36,13.14 -3.96,24.66 -13.87,24.66 -11.52,0 -15.84,-11.7 -17.1,-24.66 l 30.97,0 z m -31.15,-16.75 c 0.9,-13.68 5.22,-24.86 19.27,-24.86 8.1,0 13.5,5.59 17.46,13.871 l 16.38,-14.043 c -8.64,-12.957 -19.08,-20.34 -36.91,-20.34 -25.74,0 -39.43,19.622 -39.43,52.211 0,32.411 14.58,53.289 39.43,53.289 31.87,0 37.27,-27.367 37.27,-54.187 l 0,-5.941 -53.47,0"
         id="path3048"
         style="fill:#ffffff;fill-opacity:1;fill-rule:nonzero;stroke:none" /><path
         d="m 1610.34,277.461 c -6.3,-13.332 -16.92,-21.063 -33.85,-21.063 -25.75,0 -39.61,19.622 -39.61,52.211 0,32.411 14.76,53.289 39.61,53.289 16.75,0 27.19,-7.738 33.85,-20.699 l -18.36,-15.488 c -1.62,8.648 -6.31,14.23 -14.41,14.23 -14.4,0 -16.92,-15.121 -16.92,-31.332 0,-15.308 1.98,-30.609 16.92,-30.609 8.28,0 12.42,6.66 15.12,14.59 l 17.65,-15.129"
         id="path3050"
         style="fill:#ffffff;fill-opacity:1;fill-rule:nonzero;stroke:none" /><path
         d="m 1677.12,258.02 c -4.15,-1.09 -9.73,-1.622 -15.67,-1.622 -21.43,0 -29.35,10.973 -29.35,31.332 l 0,52.391 -10.62,0 0,19.988 10.62,0 0,29.52 23.41,0 0,-29.52 19.63,0 0,-19.988 -19.63,0 0,-50.41 c 0,-7.211 4.5,-11.531 10.44,-11.531 3.6,0 5.59,0.718 7.38,1.8 l 3.79,-21.96"
         id="path3052"
         style="fill:#ffffff;fill-opacity:1;fill-rule:nonzero;stroke:none" /><path
         d="m 1697.8,258.191 0,101.918 23.41,0 0,-101.918 -23.41,0 z m -2.34,125.86 c 0,7.75 6.48,14.051 14.23,14.051 7.74,0 14.04,-6.301 14.04,-14.051 0,-7.742 -6.3,-14.231 -14.04,-14.231 -7.75,0 -14.23,6.489 -14.23,14.231"
         id="path3054"
         style="fill:#ffffff;fill-opacity:1;fill-rule:nonzero;stroke:none" /><path
         d="m 1801.32,258.191 0,63.918 c 0,10.09 -3.79,19.27 -14.59,19.27 -10.08,0 -15.3,-8.109 -15.3,-17.82 l 0,-65.368 -23.41,0 0,87.329 c 0,3.601 -0.18,10.089 -1.98,14.589 l 20.53,0 c 0,0 1.79,-4.871 2.7,-11.16 l 0.36,0 c 5.76,8.629 14.04,12.949 24.66,12.949 22.33,0 30.43,-18.898 30.43,-39.597 l 0,-64.11 -23.4,0"
         id="path3056"
         style="fill:#ffffff;fill-opacity:1;fill-rule:nonzero;stroke:none" /><path
         d="m 1898.69,324.449 c 0,8.281 -4.86,16.75 -14.04,16.75 -13.86,0 -16.03,-13.14 -16.03,-28.09 0,-15.668 1.98,-29.711 14.77,-29.711 11.34,0 15.3,10.262 15.3,18.911 l 0,22.14 z m 0,-53.301 c -4.68,-5.57 -11.52,-9.539 -21.43,-9.539 -21.06,0 -32.22,20.172 -32.22,51.5 0,31.512 13.5,48.789 35.29,48.789 8.82,0 16.38,-4.32 20.89,-9.718 l 0.35,0 c 0.9,4.5 1.98,7.929 1.98,7.929 l 21.61,0 c -1.8,-4.5 -3.06,-10.988 -3.06,-14.589 l 0,-82.649 c 0,-28.812 -12.78,-44.832 -38.53,-44.832 -16.75,0 -27.19,6.84 -34.75,19.449 l 17.82,16.383 c 3.06,-7.383 7.03,-14.223 16.39,-14.223 10.62,0 15.66,6.84 15.66,20.34 0,7.211 0.36,11.16 0.36,11.16 l -0.36,0"
         id="path3058"
         style="fill:#ffffff;fill-opacity:1;fill-rule:nonzero;stroke:none" /><path
         d="m 2072.04,281.238 c -6.3,-14.758 -18.01,-24.84 -37.46,-24.84 -34.75,0 -44.29,32.043 -44.29,64.813 0,32.769 9.54,64.828 44.29,64.828 20.53,0 32.24,-11.348 38.36,-27.187 l -20.35,-12.614 c -3.06,10.442 -8.46,17.293 -18.01,17.293 -16.02,0 -20.88,-19.633 -20.88,-42.32 0,-22.68 4.86,-42.313 20.88,-42.313 9.01,0 14.41,6.313 17.47,15.852 l 19.99,-13.512"
         id="path3060"
         style="fill:#ffffff;fill-opacity:1;fill-rule:nonzero;stroke:none" /><path
         d="m 2145.65,258.191 c 0,0 -1.8,4.868 -2.7,11.168 l -0.36,0 c -5.76,-8.648 -14.23,-12.961 -24.85,-12.961 -22.15,0 -30.25,18.903 -30.25,39.614 l 0,64.097 23.41,0 0,-63.929 c 0,-10.078 3.78,-19.27 14.58,-19.27 10.63,0 15.31,8.828 15.31,19.27 l 0,63.929 23.4,0 0,-87.339 c 0,-3.59 0.18,-10.071 1.99,-14.579 l -20.53,0"
         id="path3062"
         style="fill:#ffffff;fill-opacity:1;fill-rule:nonzero;stroke:none" /><path
         d="m 2191.17,258.191 0,87.329 c 0,3.601 -0.18,10.089 -1.98,14.589 l 20.53,0 c 0,0 2.33,-6.129 3.41,-15.308 l 0.37,0 c 6.12,11.519 15.12,16.929 29.17,17.281 l -3.25,-27.902 c -0.54,0.351 -3.6,1.261 -6.48,1.261 -12.24,0 -18.37,-8.472 -18.37,-19.8 l 0,-57.45 -23.4,0"
         id="path3064"
         style="fill:#ffffff;fill-opacity:1;fill-rule:nonzero;stroke:none" /><path
         d="m 2259.57,258.191 0,87.329 c 0,3.601 -0.18,10.089 -1.98,14.589 l 20.52,0 c 0,0 2.34,-6.129 3.42,-15.308 l 0.36,0 c 6.13,11.519 15.13,16.929 29.17,17.281 l -3.24,-27.902 c -0.54,0.351 -3.6,1.261 -6.48,1.261 -12.24,0 -18.37,-8.472 -18.37,-19.8 l 0,-57.45 -23.4,0"
         id="path3066"
         style="fill:#ffffff;fill-opacity:1;fill-rule:nonzero;stroke:none" /><path
         d="m 2376.04,318.52 c -0.36,13.14 -3.96,24.66 -13.86,24.66 -11.53,0 -15.85,-11.7 -17.11,-24.66 l 30.97,0 z m -31.15,-16.75 c 0.9,-13.68 5.22,-24.86 19.26,-24.86 8.11,0 13.51,5.59 17.47,13.871 l 16.39,-14.043 c -8.65,-12.957 -19.09,-20.34 -36.91,-20.34 -25.75,0 -39.44,19.622 -39.44,52.211 0,32.411 14.59,53.289 39.44,53.289 31.86,0 37.27,-27.367 37.27,-54.187 l 0,-5.941 -53.48,0"
         id="path3068"
         style="fill:#ffffff;fill-opacity:1;fill-rule:nonzero;stroke:none" /><path
         d="m 2472.34,258.191 0,63.918 c 0,10.09 -3.78,19.27 -14.58,19.27 -10.09,0 -15.3,-8.109 -15.3,-17.82 l 0,-65.368 -23.41,0 0,87.329 c 0,3.601 -0.18,10.089 -1.99,14.589 l 20.53,0 c 0,0 1.8,-4.871 2.7,-11.16 l 0.36,0 c 5.76,8.629 14.04,12.949 24.67,12.949 22.32,0 30.43,-18.898 30.43,-39.597 l 0,-64.11 -23.41,0"
         id="path3070"
         style="fill:#ffffff;fill-opacity:1;fill-rule:nonzero;stroke:none" /><path
         d="m 2567.55,258.02 c -4.14,-1.09 -9.71,-1.622 -15.66,-1.622 -21.43,0 -29.35,10.973 -29.35,31.332 l 0,52.391 -10.62,0 0,19.988 10.62,0 0,29.52 23.41,0 0,-29.52 19.62,0 0,-19.988 -19.62,0 0,-50.41 c 0,-7.211 4.5,-11.531 10.44,-11.531 3.6,0 5.59,0.718 7.38,1.8 l 3.78,-21.96"
         id="path3072"
         style="fill:#ffffff;fill-opacity:1;fill-rule:nonzero;stroke:none" /><path
         d="m 2636.3,258.191 0,126.039 66.99,0 0,-22.5 -43.58,0 0,-32.242 36.73,0 0,-22.5 -36.73,0 0,-26.289 43.58,0 0,-22.508 -66.99,0"
         id="path3074"
         style="fill:#ffffff;fill-opacity:1;fill-rule:nonzero;stroke:none" /><path
         d="m 2747.55,258.371 -28.81,101.738 25.21,0 13.68,-59.597 c 1.09,-4.864 2.52,-11.891 2.52,-11.891 l 0.36,0 c 0,0 1.26,7.027 2.35,11.891 l 13.32,59.597 25.2,0 -28.45,-101.738 -25.38,0"
         id="path3076"
         style="fill:#ffffff;fill-opacity:1;fill-rule:nonzero;stroke:none" /><path
         d="m 2865.64,318.52 c -0.36,13.14 -3.97,24.66 -13.87,24.66 -11.52,0 -15.85,-11.7 -17.11,-24.66 l 30.98,0 z m -31.15,-16.75 c 0.9,-13.68 5.22,-24.86 19.26,-24.86 8.1,0 13.51,5.59 17.47,13.871 l 16.38,-14.043 c -8.64,-12.957 -19.08,-20.34 -36.91,-20.34 -25.74,0 -39.44,19.622 -39.44,52.211 0,32.411 14.59,53.289 39.44,53.289 31.87,0 37.27,-27.367 37.27,-54.187 l 0,-5.941 -53.47,0"
         id="path3078"
         style="fill:#ffffff;fill-opacity:1;fill-rule:nonzero;stroke:none" /><path
         d="m 2961.94,258.191 0,63.918 c 0,10.09 -3.78,19.27 -14.58,19.27 -10.09,0 -15.3,-8.109 -15.3,-17.82 l 0,-65.368 -23.41,0 0,87.329 c 0,3.601 -0.19,10.089 -1.99,14.589 l 20.53,0 c 0,0 1.8,-4.871 2.7,-11.16 l 0.36,0 c 5.76,8.629 14.04,12.949 24.67,12.949 22.33,0 30.43,-18.898 30.43,-39.597 l 0,-64.11 -23.41,0"
         id="path3080"
         style="fill:#ffffff;fill-opacity:1;fill-rule:nonzero;stroke:none" /><path
         d="m 3057.34,258.02 c -4.14,-1.09 -9.72,-1.622 -15.67,-1.622 -21.42,0 -29.34,10.973 -29.34,31.332 l 0,52.391 -10.63,0 0,19.988 10.63,0 0,29.52 23.41,0 0,-29.52 19.62,0 0,-19.988 -19.62,0 0,-50.41 c 0,-7.211 4.5,-11.531 10.44,-11.531 3.6,0 5.58,0.718 7.38,1.8 l 3.78,-21.96"
         id="path3082"
         style="fill:#ffffff;fill-opacity:1;fill-rule:nonzero;stroke:none" /><path
         d="m 3128.62,331.109 c -5.23,8.832 -12.25,11.532 -19.63,11.532 -5.22,0 -10.44,-3.422 -10.44,-8.821 0,-5.23 5.76,-8.468 14.4,-11.711 14.05,-5.211 32.77,-14.218 32.77,-33.129 0,-19.992 -12.24,-32.582 -34.92,-32.582 -18.37,0 -30.62,8.821 -38.73,19.801 l 16.39,16.199 c 5.05,-7.738 13.51,-15.117 23.41,-15.117 7.38,0 11.52,4.141 11.52,9.547 0,6.66 -7.92,10.801 -17.28,14.402 -14.05,5.399 -30.43,12.961 -30.43,31.5 0,13.149 10.45,29.168 34.03,29.168 14.77,0 26.1,-5.929 34.4,-16.558 l -15.49,-14.231"
         id="path3084"
         style="fill:#ffffff;fill-opacity:1;fill-rule:nonzero;stroke:none" /><path
         d="m 3261.81,258.02 c -4.14,-1.09 -9.72,-1.622 -15.66,-1.622 -21.43,0 -29.35,10.973 -29.35,31.332 l 0,52.391 -10.62,0 0,19.988 10.62,0 0,29.52 23.41,0 0,-29.52 19.62,0 0,-19.988 -19.62,0 0,-50.41 c 0,-7.211 4.5,-11.531 10.44,-11.531 3.6,0 5.58,0.718 7.38,1.8 l 3.78,-21.96"
         id="path3086"
         style="fill:#ffffff;fill-opacity:1;fill-rule:nonzero;stroke:none" /><path
         d="m 3333.1,309.328 c 0,15.66 -2.88,31.692 -16.56,31.692 -13.33,0 -16.39,-16.032 -16.39,-31.692 0,-14.769 3.06,-31.867 16.39,-31.867 13.68,0 16.56,15.48 16.56,31.867 z m -56.53,0 c 0,32.051 12.42,52.57 39.97,52.57 27.72,0 40.14,-20.519 40.14,-52.57 0,-32.418 -12.42,-52.93 -40.14,-52.93 -27.55,0 -39.97,20.512 -39.97,52.93"
         id="path3088"
         style="fill:#ffffff;fill-opacity:1;fill-rule:nonzero;stroke:none" /><path
         d="m 3457.65,339.941 c -0.72,3.418 -1.8,10.797 -1.8,10.797 l -0.36,0 c 0,0 -1.08,-7.379 -1.79,-10.797 l -8.47,-41.242 20.7,0 -8.28,41.242 z m 16.56,-81.75 -4.14,19.809 -29.17,0 -3.95,-19.809 -24.49,0 29.89,126.039 26.65,0 29.88,-126.039 -24.67,0"
         id="path3090"
         style="fill:#ffffff;fill-opacity:1;fill-rule:nonzero;stroke:none" /><path
         d="m 3514.16,258.191 0,87.329 c 0,3.601 -0.18,10.089 -1.98,14.589 l 20.53,0 c 0,0 2.34,-6.129 3.42,-15.308 l 0.36,0 c 6.12,11.519 15.13,16.929 29.17,17.281 l -3.24,-27.902 c -0.54,0.351 -3.61,1.261 -6.49,1.261 -12.23,0 -18.36,-8.472 -18.36,-19.8 l 0,-57.45 -23.41,0"
         id="path3092"
         style="fill:#ffffff;fill-opacity:1;fill-rule:nonzero;stroke:none" /><path
         d="m 3630.08,258.02 c -4.14,-1.09 -9.71,-1.622 -15.66,-1.622 -21.43,0 -29.35,10.973 -29.35,31.332 l 0,52.391 -10.62,0 0,19.988 10.62,0 0,29.52 23.41,0 0,-29.52 19.63,0 0,-19.988 -19.63,0 0,-50.41 c 0,-7.211 4.5,-11.531 10.44,-11.531 3.6,0 5.59,0.718 7.38,1.8 l 3.78,-21.96"
         id="path3094"
         style="fill:#ffffff;fill-opacity:1;fill-rule:nonzero;stroke:none" /></g></g></svg>